<svg width="59.000000" height="59.000000" viewBox="0 0 59 59" fill="none" xmlns="http://www.w3.org/2000/svg" xmlns:xlink="http://www.w3.org/1999/xlink">
	<desc>
			Created with Pixso.
	</desc>
	<defs/>
	<path id="Vector" d="M21.25 51.5L13 51.5C10.0826 51.5 7.28473 50.3413 5.2218 48.2783C3.15894 46.2153 2 43.4175 2 40.5L2 15.75C2 12.8325 3.15894 10.0347 5.2218 7.97168C7.28473 5.90869 10.0826 4.75 13 4.75L43.25 4.75C46.1674 4.75 48.9653 5.90869 51.0282 7.97168C53.0911 10.0347 54.25 12.8325 54.25 15.75L54.25 24M18.5 2L18.5 7.5M37.75 2L37.75 7.5M2 18.5L54.25 18.5M47.375 39.5181L43.25 43.6431" stroke="#000000" stroke-opacity="1.000000" stroke-width="4.000000" stroke-linejoin="round"/>
	<path id="Vector" d="M43.25 57C35.6561 57 29.5 50.8438 29.5 43.25C29.5 35.6562 35.6561 29.5 43.25 29.5C50.8439 29.5 57 35.6562 57 43.25C57 50.8438 50.8439 57 43.25 57Z" stroke="#000000" stroke-opacity="1.000000" stroke-width="4.000000" stroke-linejoin="round"/>
</svg>
