<svg width="66.000000" height="66.000000" viewBox="0 0 66 66" fill="none" xmlns="http://www.w3.org/2000/svg" xmlns:xlink="http://www.w3.org/1999/xlink">
	<desc>
			Created with Pixso.
	</desc>
	<defs>
		<clipPath id="clip1_5465">
			<rect width="66.000000" height="66.000000" fill="white" fill-opacity="0"/>
		</clipPath>
	</defs>
	<rect width="66.000000" height="66.000000" fill="#FFFFFF" fill-opacity="0"/>
	<g clip-path="url(#clip1_5465)">
		<path d="M33 61.875C27.2891 61.875 21.7064 60.1816 16.9579 57.0088C12.2095 53.8359 8.50848 49.3262 6.323 44.0498C4.13751 38.7739 3.56567 32.9678 4.67981 27.3667C5.79401 21.7656 8.54407 16.6206 12.5823 12.5825C16.6205 8.54395 21.7656 5.79395 27.3668 4.67969C32.968 3.56592 38.7738 4.1377 44.05 6.32275C49.3262 8.5083 53.8359 12.2095 57.0087 16.958C60.1815 21.7065 61.875 27.2891 61.875 33C61.875 40.6582 58.8328 48.0024 53.4177 53.4175C48.0026 58.833 40.6581 61.875 33 61.875ZM33 8.25C28.1049 8.25 23.3198 9.70166 19.2496 12.4209C15.1795 15.1406 12.0073 19.0063 10.134 23.5288C8.26074 28.0513 7.77057 33.0273 8.72559 37.8286C9.68054 42.6294 12.0378 47.0396 15.4991 50.501C18.9604 53.9624 23.3705 56.3193 28.1715 57.2744C32.9725 58.2295 37.9489 57.7393 42.4714 55.8662C46.9939 53.9927 50.8593 50.8203 53.5789 46.7505C56.2985 42.6802 57.75 37.895 57.75 33C57.75 26.436 55.1424 20.1406 50.5009 15.499C45.8594 10.8574 39.5641 8.25 33 8.25Z" fill="#000000" fill-opacity="1.000000" fill-rule="nonzero"/>
		<path d="M41.0121 43.9204L31.8162 34.7241C31.2535 34.1616 30.9375 33.3984 30.9375 32.603L30.9375 16.5C30.9375 15.3608 31.8609 14.4375 33 14.4375C34.1391 14.4375 35.0625 15.3608 35.0625 16.5L35.0625 31.3066C35.0625 31.8364 35.2726 32.3442 35.6469 32.7192L43.9231 41.0122C44.7252 41.8159 44.7245 43.1172 43.9217 43.9204C43.1182 44.7236 41.8156 44.7236 41.0121 43.9204Z" fill="#000000" fill-opacity="1.000000" fill-rule="nonzero"/>
	</g>
</svg>
