<svg width="66.666687" height="66.666504" viewBox="0 0 66.6667 66.6665" fill="none" xmlns="http://www.w3.org/2000/svg" xmlns:xlink="http://www.w3.org/1999/xlink">
	<desc>
			Created with Pixso.
	</desc>
	<defs>
		<clipPath id="clip1_5446">
			<rect width="66.666672" height="66.666672" fill="white" fill-opacity="0"/>
		</clipPath>
	</defs>
	<rect width="66.666672" height="66.666672" fill="#FFB12A" fill-opacity="0"/>
	<g clip-path="url(#clip1_5446)">
		<path d="M33.063 16.6138C31.4149 16.6138 29.8036 17.1025 28.4333 18.0181C27.0629 18.9341 25.9948 20.2354 25.364 21.7583C24.7333 23.2808 24.5682 24.9565 24.8898 26.5728C25.2114 28.1895 26.005 29.6743 27.1705 30.8398C28.3359 32.0049 29.8207 32.7988 31.4373 33.1201C33.0538 33.4419 34.7293 33.2769 36.252 32.646C37.7748 32.0151 39.0762 30.9473 39.9919 29.5767C40.9076 28.2065 41.3964 26.5952 41.3964 24.9473C41.3939 22.7378 40.5151 20.6196 38.9528 19.0571C37.3905 17.4951 35.2724 16.6162 33.063 16.6138ZM33.063 29.1138C32.239 29.1138 31.4333 28.8696 30.7481 28.4116C30.0629 27.9536 29.5289 27.3027 29.2135 26.5415C28.8981 25.7803 28.8156 24.9424 28.9764 24.1343C29.1372 23.3262 29.534 22.5835 30.1168 22.001C30.6995 21.418 31.4419 21.0215 32.2501 20.8604C33.0584 20.6997 33.8962 20.7822 34.6575 21.0977C35.4189 21.4131 36.0696 21.9468 36.5275 22.6323C36.9853 23.3174 37.2297 24.123 37.2297 24.9473C37.2284 26.0518 36.789 27.1108 36.0079 27.8921C35.2267 28.6733 34.1677 29.1123 33.063 29.1138Z" fill="#000000" fill-opacity="1.000000" fill-rule="nonzero"/>
		<path d="M49.0763 8.92139C45.117 4.96289 39.8318 2.61182 34.2408 2.32129C28.6498 2.03027 23.1493 3.82129 18.8009 7.34766C14.4525 10.874 11.5645 15.8862 10.6943 21.4165C9.82404 26.9468 11.0332 32.604 14.0885 37.2954L29.8316 61.4634C30.1819 62.0015 30.6609 62.4434 31.2253 62.749C31.7896 63.0552 32.4212 63.2153 33.063 63.2153C33.7049 63.2153 34.3366 63.0552 34.9009 62.749C35.4651 62.4434 35.9442 62.0015 36.2945 61.4634L52.0381 37.2954C54.8731 32.9434 56.1259 27.749 55.5867 22.5835C55.0475 17.4175 52.7489 12.5942 49.0763 8.92139ZM48.547 35.021L33.0631 58.7905L17.5792 35.021C12.8395 27.7451 13.8561 18.0078 19.9962 11.8677C21.7122 10.1519 23.7493 8.79053 25.9913 7.86182C28.2333 6.93311 30.6364 6.45508 33.0631 6.45508C35.4899 6.45508 37.8929 6.93311 40.1349 7.86182C42.377 8.79053 44.4141 10.1519 46.1301 11.8677C52.2701 18.0078 53.2866 27.7451 48.547 35.021Z" fill="#000000" fill-opacity="1.000000" fill-rule="nonzero"/>
	</g>
</svg>
