<svg width="66.666626" height="66.666504" viewBox="0 0 66.6666 66.6665" fill="none" xmlns="http://www.w3.org/2000/svg" xmlns:xlink="http://www.w3.org/1999/xlink">
	<desc>
			Created with Pixso.
	</desc>
	<defs>
		<clipPath id="clip1_5432">
			<rect width="66.666664" height="66.666664" fill="white" fill-opacity="0"/>
		</clipPath>
	</defs>
	<rect width="66.666664" height="66.666664" fill="#FFB12A" fill-opacity="0"/>
	<g clip-path="url(#clip1_5432)">
		<path d="M46.2963 7.40723L20.3704 7.40723C19.3881 7.40723 18.446 7.79736 17.7515 8.49219C17.0569 9.18652 16.6666 10.1284 16.6666 11.1108L16.6666 55.5552C16.6666 56.5376 17.0569 57.4795 17.7515 58.1743C18.446 58.8687 19.3881 59.2593 20.3704 59.2593L46.2963 59.2593C47.2786 59.2593 48.2206 58.8687 48.9152 58.1743C49.6097 57.4795 50 56.5376 50 55.5552L50 11.1108C50 10.1284 49.6097 9.18652 48.9152 8.49219C48.2206 7.79736 47.2786 7.40723 46.2963 7.40723ZM20.3704 11.1108L46.2963 11.1108L46.2963 44.4443L20.3704 44.4443L20.3704 11.1108ZM20.3704 55.5552L20.3704 48.1479L46.2963 48.1479L46.2963 55.5552L20.3704 55.5552Z" fill="#000000" fill-opacity="1.000000" fill-rule="nonzero"/>
		<path d="M31.4814 50L35.1852 50L35.1852 53.7036L31.4814 53.7036L31.4814 50Z" fill="#000000" fill-opacity="1.000000" fill-rule="nonzero"/>
	</g>
</svg>
