<svg width="28.000000" height="28.000000" viewBox="0 0 28 28" fill="none"
	xmlns="http://www.w3.org/2000/svg" xmlns:xlink="http://www.w3.org/1999/xlink">
	<desc>
		Created with Pixso.
	</desc>
	<defs>
		<clipPath id="clip1_7411">
			<rect id="material-symbols:shopping-cart-outline-rounded" width="28.000000"
				height="28.000000" fill="white" fill-opacity="0" />
		</clipPath>
		<linearGradient id="paint_linear_1_7412_0" x1="13.999998" y1="2.000000" x2="13.999998"
			y2="17.882067" gradientUnits="userSpaceOnUse">
			<stop stop-color="#FFA509" />
			<stop offset="1.000000" stop-color="#F66C4F" />
		</linearGradient>
	</defs>
	<rect id="material-symbols:shopping-cart-outline-rounded" width="28.000000" height="28.000000"
		fill="#FFFFFF" fill-opacity="0" />
	<g clip-path="url(#clip1_7411)">
		<path id="shopping-bag (1) 1 (Traced)"
			d="M16.6025 2.07178C14.9634 2.42285 13.6631 3.73535 13.3242 5.37988C13.27 5.64258 13.25 6.00928 13.25 6.72754L13.25 7.71436L11.3398 7.71436C9.5166 7.71484 9.42285 7.71875 9.27686 7.80762C9.19287 7.85889 9.08203 7.96973 9.03076 8.05371C8.94189 8.19971 8.93799 8.29346 8.9375 10.0703L8.9375 11.9341L13.6602 11.9351C18.8076 11.936 18.7656 11.9341 19.2612 12.2017C19.8042 12.4946 20.2251 13.0918 20.3286 13.7158C20.3638 13.9253 20.3745 15.6523 20.3643 19.2251C20.3506 24.0059 20.3428 24.4521 20.2681 24.7036C20.1528 25.0908 20.0078 25.4219 19.8276 25.7085C19.7417 25.8442 19.6719 25.9658 19.6719 25.978C19.6719 25.9902 20.6899 26.0005 21.9336 26C24.3359 25.9995 24.4346 25.9917 24.8716 25.7681C25.1377 25.6318 25.5537 25.2388 25.7056 24.9795C25.7705 24.8687 25.8633 24.6504 25.9121 24.4941C25.9971 24.2207 26 23.9146 26 16.2085C26 8.30664 25.9985 8.20459 25.9067 8.05371C25.8555 7.96973 25.7446 7.85889 25.6606 7.80762C25.5151 7.71875 25.4214 7.71484 23.5977 7.71436L21.6875 7.71436L21.6875 6.72754C21.6875 6.01025 21.6675 5.64258 21.6133 5.37988C21.2729 3.72412 19.9585 2.40967 18.3027 2.06836C17.8535 1.97607 17.0425 1.97754 16.6025 2.07178ZM18.2236 3.52295C18.9316 3.73096 19.5933 4.26172 19.9141 4.87744C20.2139 5.4541 20.2451 5.61426 20.2695 6.71777L20.292 7.71436L17.4741 7.71436L14.6562 7.71436L14.6567 6.90527C14.6567 6.46045 14.6787 5.96191 14.7056 5.79736C14.8975 4.61279 15.8335 3.66016 17.0117 3.44971C17.3281 3.39355 17.9009 3.42773 18.2236 3.52295ZM2.33936 13.4346C2.25513 13.4858 2.14453 13.5962 2.09326 13.6802C2.00195 13.8306 2.00024 13.9272 2 19.0176C1.99976 23.6475 2.00781 24.229 2.0752 24.4565C2.1875 24.835 2.31128 25.0508 2.57861 25.3335C2.86084 25.6318 3.11475 25.7905 3.50586 25.9121C3.77832 25.9971 4.05762 26.0005 10.4766 26C17.6309 25.9995 17.3721 26.0073 17.8403 25.7681C18.1064 25.6318 18.5225 25.2388 18.6738 24.9795C18.7393 24.8687 18.832 24.6504 18.8804 24.4941C18.9648 24.2236 18.9688 23.9727 18.9688 19.022C18.9683 13.9272 18.9668 13.8306 18.8755 13.6802C18.8242 13.5962 18.7134 13.4858 18.6294 13.4346C18.4785 13.3423 18.377 13.3413 10.4844 13.3413C2.5918 13.3413 2.48999 13.3423 2.33936 13.4346ZM7.29395 16.2886C7.57324 16.4902 7.59717 16.5693 7.62793 17.3872C7.65039 18.0034 7.67578 18.2041 7.76172 18.4517C8.05078 19.2847 8.70361 19.939 9.54688 20.2402C9.80371 20.332 9.94287 20.3491 10.4375 20.3491C10.9321 20.3491 11.0708 20.332 11.3281 20.2402C12.1709 19.939 12.8228 19.2861 13.1138 18.4517C13.2002 18.2026 13.2246 18.0078 13.2466 17.3882C13.2759 16.5654 13.2969 16.4976 13.5928 16.2769C13.7646 16.1484 14.1416 16.1484 14.3135 16.2769C14.5811 16.4766 14.6284 16.5913 14.6484 17.0918C14.7031 18.4502 14.311 19.5674 13.4692 20.4536C11.8662 22.1421 9.24023 22.2036 7.54492 20.5933C6.7041 19.7939 6.28955 18.8359 6.23291 17.5576C6.19922 16.7939 6.22607 16.6245 6.41309 16.4111C6.64209 16.1504 7.02783 16.0962 7.29395 16.2886Z"
			fill="url(#paint_linear_1_7412_0)" fill-opacity="1.000000" fill-rule="evenodd" />
	</g>
</svg>