<svg width="28.000000" height="28.000000" viewBox="0 0 28 28" fill="none" xmlns="http://www.w3.org/2000/svg" xmlns:xlink="http://www.w3.org/1999/xlink">
	<desc>
			Created with Pixso.
	</desc>
	<defs>
		<clipPath id="clip1_8569">
			<rect id="quill:hamburger-sidebar" width="28.000000" height="28.000000" fill="white" fill-opacity="0"/>
		</clipPath>
	</defs>
	<rect id="quill:hamburger-sidebar" width="28.000000" height="28.000000" fill="#FFFFFF" fill-opacity="0"/>
	<g clip-path="url(#clip1_8569)">
		<path id="filter 1 (Traced)" d="M17.2578 4.07312C16.4004 4.28809 15.6094 4.94995 15.2031 5.79297C15.084 6.04395 14.9844 6.29065 14.9844 6.34119C14.9844 6.43079 14.8203 6.43347 8.76367 6.44604C2.96094 6.45801 2.53125 6.4646 2.39258 6.54358C2.16211 6.67542 2.0332 6.90063 2.01172 7.21216C1.99219 7.53137 2.10547 7.75403 2.37695 7.92029C2.54102 8.01965 2.59375 8.02075 8.74414 8.04492L14.9453 8.06934L15.0742 8.41394C15.4316 9.37109 16.293 10.1638 17.2363 10.406C17.6348 10.5078 18.375 10.5087 18.748 10.408C19.7949 10.1256 20.6504 9.29041 20.9805 8.22791L21.0371 8.04492L23.2031 8.04492C25.3574 8.04492 25.3711 8.04431 25.5762 7.93518C25.8809 7.77258 25.9746 7.61121 25.9746 7.24841C25.9746 7.01086 25.9512 6.91309 25.8652 6.7876C25.6348 6.45203 25.6992 6.46045 23.25 6.44495L21.041 6.43091L20.9434 6.15137C20.5762 5.10364 19.6191 4.24597 18.5898 4.04272C18.2461 3.97485 17.5898 3.98987 17.2578 4.07312ZM18.3828 5.63184C19.1094 5.82849 19.5801 6.45459 19.582 7.22375C19.5859 8.01672 19.1406 8.63611 18.4082 8.85828C18.0957 8.953 17.6523 8.9209 17.3496 8.78137C17.0527 8.64453 16.6562 8.23621 16.5254 7.93274C16.373 7.57922 16.3672 6.90613 16.5156 6.57239C16.7168 6.11584 17.1777 5.72375 17.6445 5.60913C17.9102 5.5437 18.0781 5.54883 18.3828 5.63184ZM9.46875 10.7825C8.40234 10.9679 7.40625 11.851 7.05469 12.9197L6.95703 13.2177L4.74414 13.2177L2.53125 13.2177L2.37305 13.3287C1.875 13.6786 1.875 14.3185 2.37305 14.6683L2.53125 14.7793L4.74414 14.7793L6.95703 14.7793L7.05469 15.0773C7.54297 16.5659 9.10547 17.5054 10.582 17.1987C11.6855 16.9695 12.5723 16.183 12.9492 15.1019L13.0527 14.8037L19.2871 14.7793C25.5234 14.7549 25.5234 14.7549 25.6543 14.6528C26.1152 14.2979 26.1152 13.6992 25.6543 13.3442C25.5234 13.2421 25.5234 13.2421 19.2871 13.2177L13.0527 13.1934L12.9492 12.895C12.4336 11.415 10.9648 10.5226 9.46875 10.7825ZM10.6777 12.476C11.0039 12.6407 11.25 12.8862 11.4258 13.2262C11.5762 13.5161 11.5859 13.563 11.5859 13.9985C11.5859 14.434 11.5762 14.4808 11.4258 14.7708C11.1328 15.3323 10.7031 15.615 10.0898 15.6473C9.61719 15.6721 9.2793 15.553 8.95117 15.2451C8.22852 14.5687 8.22852 13.4282 8.95117 12.7517C9.28516 12.4387 9.57422 12.3353 10.0645 12.3535C10.3574 12.3644 10.5195 12.3966 10.6777 12.476ZM17.1875 17.6036C16.2539 17.8662 15.4258 18.642 15.0742 19.583L14.9453 19.9276L8.7168 19.952L2.48828 19.9764L2.31445 20.1132C2.07227 20.3063 1.98828 20.499 2.01172 20.8063C2.03516 21.0977 2.16992 21.3265 2.39258 21.4534C2.53125 21.5323 2.96094 21.5389 8.76367 21.5509C14.8203 21.5635 14.9844 21.5663 14.9844 21.6558C14.9844 21.7064 15.084 21.9531 15.2031 22.2041C15.6152 23.0579 16.4043 23.7137 17.2812 23.9269C17.625 24.0107 18.2324 24.0248 18.5762 23.9569C19.6074 23.7535 20.5215 22.9502 20.916 21.9036L21.043 21.566L23.252 21.5521C25.2422 21.5394 25.4746 21.5298 25.6074 21.4534C25.8301 21.3265 25.9648 21.0977 25.9883 20.8063C26.0137 20.4991 25.9277 20.3063 25.6855 20.1132L25.5137 19.9764L23.2754 19.9629L21.0371 19.9493L20.9805 19.7677C20.6504 18.7067 19.793 17.8713 18.748 17.589C18.3613 17.4847 17.584 17.4921 17.1875 17.6036ZM18.4316 19.1451C19.1426 19.3649 19.5859 19.9915 19.582 20.7733C19.582 21.1498 19.4941 21.429 19.2812 21.745C18.9824 22.1859 18.332 22.4852 17.8203 22.4185C17.2812 22.3484 16.7422 21.9385 16.5156 21.4247C16.3691 21.0924 16.3711 20.4154 16.5215 20.0741C16.6387 19.8075 16.9316 19.4691 17.1855 19.3047C17.5273 19.0834 18.0254 19.0195 18.4316 19.1451Z" fill="#000000" fill-opacity="1.000000" fill-rule="evenodd"/>
	</g>
</svg>
