<svg width="28.000000" height="28.000000" viewBox="0 0 28 28" fill="none" xmlns="http://www.w3.org/2000/svg" xmlns:xlink="http://www.w3.org/1999/xlink">
	<desc>
			Created with Pixso.
	</desc>
	<defs>
		<clipPath id="clip1_431">
			<rect id="akar-icons:person" width="28.000000" height="28.000000" fill="white" fill-opacity="0"/>
		</clipPath>
	</defs>
	<rect id="akar-icons:person" width="28.000000" height="28.000000" fill="#FFFFFF" fill-opacity="0"/>
	<g clip-path="url(#clip1_431)">
		<path id="Vector" d="M14 14C10.7773 14 8.16602 11.3887 8.16602 8.16699C8.16602 4.94531 10.7773 2.3335 14 2.3335C17.2207 2.3335 19.832 4.94531 19.832 8.16699C19.832 11.3887 17.2207 14 14 14Z" stroke="#000000" stroke-opacity="1.000000" stroke-width="1.500000"/>
		<path id="Vector" d="M19.832 16.3335L20.2422 16.3335C21.0957 16.3335 21.9199 16.6455 22.5586 17.21C23.1973 17.7744 23.6094 18.5532 23.7148 19.3994L24.1719 23.0439C24.2129 23.3726 24.1836 23.7056 24.0859 24.022C23.9883 24.3379 23.8242 24.6299 23.6055 24.8779C23.3848 25.126 23.1172 25.3247 22.8145 25.4604C22.5137 25.5967 22.1855 25.667 21.8555 25.667L6.14258 25.667C5.8125 25.667 5.48438 25.5967 5.18359 25.4604C4.88086 25.3247 4.61133 25.126 4.39258 24.8779C4.17383 24.6299 4.00977 24.3379 3.91211 24.022C3.81445 23.7056 3.78516 23.3726 3.82617 23.0439L4.28125 19.3994C4.38672 18.5527 4.79883 17.7739 5.43945 17.209C6.07812 16.6445 6.90234 16.333 7.75586 16.3335L8.16602 16.3335" stroke="#000000" stroke-opacity="1.000000" stroke-width="1.500000" stroke-linejoin="round" stroke-linecap="round"/>
	</g>
</svg>
