<svg width="26.000000" height="26.000000" viewBox="0 0 26 26" fill="none" xmlns="http://www.w3.org/2000/svg" xmlns:xlink="http://www.w3.org/1999/xlink">
	<desc>
			Created with Pixso.
	</desc>
	<defs>
		<clipPath id="clip1_8528">
			<rect id="material-symbols:shopping-cart-outline-rounded" width="26.000000" height="26.000000" fill="white" fill-opacity="0"/>
		</clipPath>
	</defs>
	<rect id="material-symbols:shopping-cart-outline-rounded" width="26.000000" height="26.000000" fill="#FFFFFF" fill-opacity="0"/>
	<g clip-path="url(#clip1_8528)">
		<path id="shopping-bag 1 (Traced)" d="M15.416 1.92383C13.9023 2.24805 12.6855 3.47656 12.373 4.99536C12.3223 5.2395 12.3047 5.58105 12.3047 6.24707L12.3047 7.16333L10.5527 7.16357C8.88086 7.16357 8.79297 7.16772 8.6582 7.25024C8.58008 7.29785 8.47656 7.40063 8.42969 7.47852C8.3457 7.61548 8.34375 7.70239 8.34375 10.0042L8.34375 12.3879L5.32812 12.3882C2.39844 12.3882 2.31055 12.3906 2.17188 12.4749C2.09375 12.5225 1.99219 12.6252 1.94336 12.7031C1.85938 12.8425 1.85742 12.9324 1.85742 17.6631C1.85742 22.2603 1.86133 22.4932 1.93945 22.7446C2.05273 23.1077 2.19922 23.3438 2.47656 23.606C2.73828 23.854 2.93945 23.969 3.29102 24.0732C3.50586 24.1367 4.41602 24.1433 12.998 24.1428C23.1465 24.1423 22.6543 24.1528 23.0957 23.9275C23.3418 23.8013 23.7285 23.436 23.8691 23.1956C23.9297 23.0925 24.0156 22.8896 24.0605 22.7446C24.1406 22.491 24.1426 22.2065 24.1426 15.0508C24.1426 7.71338 24.1426 7.61865 24.0566 7.47852C24.0098 7.40063 23.9062 7.29785 23.8281 7.25024C23.6934 7.16772 23.6055 7.16357 21.9414 7.16357L20.1953 7.16333L20.168 6.67358C20.1523 6.40405 20.1387 5.99194 20.1387 5.75732C20.1387 3.9043 18.8223 2.29712 16.9961 1.92065C16.5781 1.83472 15.8262 1.83618 15.416 1.92383ZM16.9219 3.27124C17.5801 3.46436 18.1934 3.95728 18.4922 4.5293C18.7695 5.06445 18.7988 5.21313 18.8223 6.23804L18.8418 7.16333L16.252 7.16333L13.6621 7.16333L13.6309 6.48999C13.5859 5.51221 13.6504 5.10327 13.9395 4.55103C14.3066 3.85327 15.0078 3.34351 15.793 3.20386C16.0898 3.15112 16.6211 3.18262 16.9219 3.27124ZM12.3477 8.89404C12.3477 9.24072 12.3633 9.34448 12.4336 9.46045C12.6914 9.88086 13.3105 9.88086 13.5664 9.46045C13.6367 9.34448 13.6523 9.24072 13.6523 8.89404L13.6523 8.46948L16.2656 8.46948L18.877 8.46948L18.877 8.89404C18.877 9.24072 18.8926 9.34448 18.9629 9.46045C19.2188 9.88086 19.8398 9.88086 20.0957 9.46045C20.166 9.34448 20.1816 9.24072 20.1816 8.89404L20.1816 8.46948L21.5098 8.46948L22.8379 8.46948L22.8262 15.4324C22.8164 22.3884 22.8164 22.3955 22.7266 22.5156C22.6758 22.5818 22.582 22.6763 22.5156 22.7256C22.3984 22.8135 22.3418 22.8157 19.9551 22.8276L17.5156 22.8401L17.5527 22.7407C17.5742 22.686 17.5957 20.4373 17.6035 17.7432C17.6152 12.9133 17.6133 12.8433 17.5273 12.7031C17.4805 12.6252 17.377 12.5225 17.2988 12.4749C17.1602 12.3901 17.0723 12.3882 13.4023 12.3882L9.64844 12.3879L9.64844 10.4287L9.64844 8.46948L10.998 8.46948L12.3477 8.46948L12.3477 8.89404ZM16.2988 18.0449C16.2871 22.3618 16.2852 22.3965 16.1973 22.5156C16.1484 22.5818 16.0527 22.6763 15.9863 22.7256C15.8672 22.8154 15.8594 22.8154 9.73633 22.8154C3.61133 22.8154 3.60547 22.8154 3.48438 22.7256C3.41797 22.6763 3.32422 22.5818 3.27539 22.5156C3.18555 22.3965 3.18555 22.3618 3.17383 18.0449L3.16211 13.6941L9.73633 13.6941L16.3105 13.6941L16.2988 18.0449ZM6.13281 15.0872C5.85742 15.2556 5.81836 15.3801 5.81836 16.1016C5.81836 16.8196 5.88281 17.2285 6.07812 17.7317C6.45508 18.7061 7.33594 19.5874 8.31055 19.9648C9.21094 20.3132 10.2617 20.3132 11.1602 19.9648C12.1348 19.5874 13.0156 18.7061 13.3926 17.7317C13.5879 17.2285 13.6523 16.8196 13.6523 16.1016C13.6523 15.5356 13.6426 15.4402 13.5664 15.3154C13.3125 14.8997 12.6895 14.8948 12.4395 15.3066C12.373 15.4153 12.3555 15.5615 12.3359 16.1016C12.3203 16.541 12.2871 16.8442 12.2383 17.0029C11.9668 17.8872 11.2969 18.551 10.4102 18.8145C10.0605 18.9187 9.41211 18.9187 9.06055 18.8145C8.17578 18.551 7.50586 17.8872 7.23242 17.0029C7.18359 16.8442 7.15039 16.541 7.13672 16.1016C7.11719 15.5615 7.09766 15.4153 7.03125 15.3066C6.91602 15.1167 6.70312 15.0005 6.4707 15.0005C6.35156 15.0005 6.21875 15.0347 6.13281 15.0872Z" fill="#FFFFFF" fill-opacity="1.000000" fill-rule="evenodd"/>
	</g>
</svg>
