<svg width="26.000000" height="26.000000" viewBox="0 0 26 26" fill="none"
	xmlns="http://www.w3.org/2000/svg" xmlns:xlink="http://www.w3.org/1999/xlink">
	<desc>
		Created with Pixso.
	</desc>
	<defs>
		<clipPath id="clip1_8362">
			<rect id="Frame" width="26.000000" height="26.000000" fill="white" fill-opacity="0" />
		</clipPath>
	</defs>
	<rect id="Frame" width="26.000000" height="26.000000" fill="#FFFFFF" fill-opacity="0" />
	<g clip-path="url(#clip1_8362)">
		<path id="Vector"
			d="M13 4.90649C15.5449 2.62158 19.4785 2.69751 21.9297 5.15332C24.3789 7.61035 24.4648 11.5234 22.1855 14.0757L12.998 23.2754L3.81445 14.0757C1.53516 11.5234 1.61914 7.604 4.07031 5.15332C6.52344 2.70068 10.4473 2.61841 13 4.90649ZM20.3945 6.68408C18.7695 5.05688 16.1484 4.99097 14.4473 6.51831L13.002 7.81616L11.5547 6.51953C9.84766 4.98975 7.23242 5.05688 5.60156 6.68628C3.98828 8.30054 3.90625 10.8843 5.39453 12.5916L13 20.2085L20.6035 12.5925C22.0938 10.8843 22.0117 8.30371 20.3945 6.68408Z"
			fill="#FFFFFF" fill-opacity="1.000000" fill-rule="nonzero" />
	</g>
</svg>