<svg width="26.000000" height="26.000000" viewBox="0 0 28 28" fill="none"
	xmlns="http://www.w3.org/2000/svg" xmlns:xlink="http://www.w3.org/1999/xlink">
	<desc>
		Created with Pixso.
	</desc>
	<defs>
		<clipPath id="clip1_7267">
			<rect id="bytesize:heart" width="24.000000" height="24.000000"
				transform="translate(1.749756 2.250000)" fill="white" fill-opacity="0" />
		</clipPath>
		<clipPath id="clip1_7265">
			<rect id="Frame" width="26.000000" height="26.000000" fill="white" fill-opacity="0" />
		</clipPath>
		<linearGradient id="paint_linear_1_7268_0" x1="13.884707" y1="4.841309" x2="13.884707"
			y2="17.023392" gradientUnits="userSpaceOnUse">
			<stop stop-color="#FFA509" />
			<stop offset="1.000000" stop-color="#F66C4F" />
		</linearGradient>
		<linearGradient id="paint_linear_1_7268_1" x1="13.884707" y1="4.841309" x2="13.884707"
			y2="17.023392" gradientUnits="userSpaceOnUse">
			<stop stop-color="#FFA509" />
			<stop offset="1.000000" stop-color="#F66C4F" />
		</linearGradient>
	</defs>
	<rect id="Frame" width="26.000000" height="26.000000" fill="#FFFFFF" fill-opacity="0" />
	<g clip-path="url(#clip1_7265)">
		<rect id="bytesize:heart" width="24.000000" height="24.000000"
			transform="translate(1.749756 2.250000)" fill="#FFFFFF" fill-opacity="0" />
		<g clip-path="url(#clip1_7267)">
			<path id="Vector"
				d="M4.74976 14.25C2.49976 11.25 3.24976 6.75 6.99976 5.25C10.7498 3.75 12.9998 6.75 13.7498 8.25C14.4998 6.75 17.4998 3.75 21.2498 5.25C24.9998 6.75 24.9998 11.25 22.7498 14.25C20.4998 17.25 13.7498 23.25 13.7498 23.25C13.7498 23.25 6.99976 17.25 4.74976 14.25Z"
				fill="#FFFFFF" fill-opacity="1.000000" fill-rule="nonzero" />
			<path id="Vector"
				d="M6.99976 5.25C10.7498 3.75 12.9998 6.75 13.7498 8.25C14.4998 6.75 17.4998 3.75 21.2498 5.25C24.9998 6.75 24.9998 11.25 22.7498 14.25C20.4998 17.25 13.7498 23.25 13.7498 23.25C13.7498 23.25 6.99976 17.25 4.74976 14.25C2.49976 11.25 3.24976 6.75 6.99976 5.25Z"
				stroke="#FFFFFF" stroke-opacity="1.000000"
				stroke-width="2.000000" stroke-linejoin="round" />
		</g>
	</g>
</svg>