<svg width="48.000000" height="48.000000" viewBox="0 0 48 48" fill="none" xmlns="http://www.w3.org/2000/svg" xmlns:xlink="http://www.w3.org/1999/xlink">
	<desc>
			Created with Pixso.
	</desc>
	<defs>
		<clipPath id="clip1_8451">
			<rect id="healthicons:stock-out-outline" width="48.000000" height="48.000000" fill="white" fill-opacity="0"/>
		</clipPath>
	</defs>
	<rect id="healthicons:stock-out-outline" width="48.000000" height="48.000000" fill="#FFFFFF" fill-opacity="0"/>
	<g clip-path="url(#clip1_8451)">
		<path id="Vector" d="M28.5312 4.10107C28.7539 3.87061 28.8789 3.56201 28.875 3.2417C28.873 2.92139 28.7441 2.61475 28.5176 2.38818C28.291 2.16162 27.9844 2.03271 27.6641 2.03027C27.3438 2.02734 27.0352 2.15039 26.8047 2.37305L24.002 5.17578L21.1992 2.37305C21.0859 2.25635 20.9512 2.16309 20.8027 2.09912C20.6523 2.03516 20.4922 2.00146 20.3301 2C20.168 1.99854 20.0078 2.02979 19.8574 2.09082C19.707 2.15234 19.5703 2.24316 19.4551 2.35791C19.3418 2.47266 19.25 2.60938 19.1895 2.75928C19.127 2.90967 19.0957 3.07031 19.0977 3.23291C19.0996 3.39502 19.1328 3.55566 19.1973 3.70459C19.2617 3.85352 19.3535 3.98877 19.4707 4.10107L22.2734 6.90381L19.4707 9.70605C19.248 9.93701 19.125 10.2456 19.127 10.5659C19.1309 10.8862 19.2598 11.1929 19.4863 11.4194C19.7129 11.646 20.0195 11.7749 20.3398 11.7773C20.6602 11.7803 20.9688 11.6572 21.1992 11.4346L24.002 8.63184L26.8047 11.4346C27.0332 11.6636 27.3438 11.7925 27.668 11.792C27.9922 11.792 28.3027 11.6631 28.5332 11.4341C28.7617 11.2046 28.8906 10.8936 28.8906 10.5693C28.8906 10.2451 28.7617 9.93408 28.5312 9.70508L25.7305 6.90381L28.5312 4.10107Z" fill="#FFA509" fill-opacity="1.000000" fill-rule="nonzero"/>
		<path id="Vector" d="M2.83594 27.0073L6.88867 28.3579L6.88867 38.6807C6.88867 38.9346 6.96875 39.1826 7.11523 39.3896C7.26367 39.5967 7.47266 39.7524 7.71094 39.8354L23.5898 45.332C23.8418 45.4219 24.1152 45.4268 24.3691 45.3452L24.3867 45.3403L24.4043 45.3345L40.2891 39.8354C40.5273 39.7524 40.7363 39.5967 40.8848 39.3896C41.0312 39.1826 41.1113 38.9346 41.1113 38.6807L41.1113 28.3579L45.1641 27.0073C45.3496 26.9453 45.5195 26.8389 45.6562 26.6973C45.793 26.5557 45.8945 26.3828 45.9492 26.1938C46.0059 26.0049 46.0156 25.8057 45.9766 25.6123C45.9395 25.4189 45.8555 25.2373 45.7324 25.084L40.8438 18.9727C40.6973 18.7925 40.5039 18.6567 40.2852 18.5815L24.4004 13.082C24.1406 12.9922 23.8594 12.9922 23.5996 13.082L7.71484 18.5815C7.49609 18.6567 7.30273 18.792 7.15625 18.9727L2.26758 25.084C2.14453 25.2373 2.06055 25.4189 2.02344 25.6123C1.98438 25.8057 1.99414 26.0049 2.05078 26.1938C2.10547 26.3828 2.20703 26.5557 2.34375 26.6973C2.48047 26.8389 2.65039 26.9453 2.83594 27.0073ZM20.7227 32.0479L22.7773 29.1147L22.7773 42.4644L9.33398 37.8105L9.33398 29.1719L19.3359 32.5063C19.5859 32.5894 19.8555 32.5894 20.1055 32.5063C20.3555 32.4238 20.5723 32.2622 20.7227 32.0464L20.7227 32.0479ZM11.8477 19.7368L24 23.9434L36.1523 19.7368L24 15.5298L11.8477 19.7368ZM27.2773 32.0479L25.2227 29.1157L25.2227 42.4658L38.666 37.8115L38.666 29.1719L28.6641 32.5063C28.4141 32.5894 28.1445 32.5894 27.8945 32.5063C27.6445 32.4238 27.4277 32.2622 27.2773 32.0464L27.2773 32.0479ZM8.52734 21.1738L5.27148 25.2427L12.0078 27.4878L19.2441 29.8994L22.0703 25.8623L21.9043 25.8047L8.52734 21.1729L8.52734 21.1738ZM42.7285 25.2427L39.4727 21.1729L25.9297 25.8623L28.7559 29.8994L42.7285 25.2427Z" fill="#FFA509" fill-opacity="1.000000" fill-rule="evenodd"/>
	</g>
</svg>
