<svg width="48.000000" height="48.000000" viewBox="0 0 48 48" fill="none" xmlns="http://www.w3.org/2000/svg" xmlns:xlink="http://www.w3.org/1999/xlink">
	<desc>
			Created with Pixso.
	</desc>
	<defs>
		<clipPath id="clip1_8469">
			<rect id="carbon:delivery" width="48.000000" height="48.000000" fill="white" fill-opacity="0"/>
		</clipPath>
	</defs>
	<rect id="carbon:delivery" width="48.000000" height="48.000000" fill="#FFFFFF" fill-opacity="0"/>
	<g clip-path="url(#clip1_8469)">
		<path id="Vector" d="M7.5 24L22.5 24C23.3281 24 24 24.6714 24 25.5C24 26.3286 23.3281 27 22.5 27L7.5 27C6.67188 27 6 26.3286 6 25.5C6 24.6714 6.67188 24 7.5 24ZM4.5 16.5L16.5 16.5C17.3281 16.5 18 17.1714 18 18C18 18.8286 17.3281 19.5 16.5 19.5L4.5 19.5C3.67188 19.5 3 18.8286 3 18C3 17.1714 3.67188 16.5 4.5 16.5Z" fill="#00E016" fill-opacity="1.000000" fill-rule="nonzero"/>
		<path id="Vector" d="M44.877 24.9092L40.377 14.4092C40.2617 14.1392 40.0703 13.9092 39.8242 13.7476C39.5801 13.5859 39.293 13.5 39 13.5L34.5 13.5L34.5 10.5C34.5 10.1021 34.3418 9.7207 34.0605 9.43945C33.7793 9.1582 33.3965 9 33 9L10.5 9C9.66992 9 9 9.67139 9 10.5C9 11.3286 9.66992 12 10.5 12L31.5 12L31.5 30.834C30.8164 31.231 30.2168 31.7593 29.7383 32.3882C29.2598 33.0176 28.9121 33.7354 28.7129 34.5L19.2852 34.5C18.9219 33.0859 18.0527 31.8535 16.8438 31.0342C15.6348 30.2144 14.1699 29.8638 12.7207 30.0479C11.2715 30.2319 9.93945 30.938 8.97461 32.0337C8.00977 33.1294 7.47656 34.5396 7.47656 36C7.47656 37.4604 8.00977 38.8706 8.97461 39.9663C9.93945 41.062 11.2715 41.7681 12.7207 41.9521C14.1699 42.1362 15.6348 41.7856 16.8438 40.9658C18.0527 40.1465 18.9219 38.9141 19.2852 37.5L28.7129 37.5C29.0391 38.7876 29.7852 39.9292 30.832 40.7446C31.8809 41.5605 33.1719 42.0034 34.5 42.0034C35.8262 42.0034 37.1172 41.5605 38.166 40.7446C39.2129 39.9292 39.959 38.7876 40.2852 37.5L43.5 37.5C43.8965 37.5 44.2793 37.3418 44.5605 37.0605C44.8418 36.7793 45 36.3979 45 36L45 25.5C45 25.2969 44.957 25.0957 44.877 24.9092ZM13.5 39C12.9062 39 12.3262 38.8242 11.832 38.4946C11.3398 38.1646 10.9551 37.6963 10.7266 37.1479C10.5 36.6001 10.4414 35.9966 10.5566 35.4146C10.6719 34.833 10.959 34.2983 11.377 33.8789C11.7969 33.459 12.332 33.1733 12.9141 33.0576C13.4961 32.9419 14.0996 33.0015 14.6465 33.2285C15.1953 33.4556 15.6641 33.8398 15.9941 34.3335C16.3223 34.8267 16.5 35.4067 16.5 36C16.498 36.7954 16.1816 37.5581 15.6191 38.1206C15.0566 38.6831 14.2949 38.999 13.5 39ZM34.5 16.5L38.0098 16.5L41.2246 24L34.5 24L34.5 16.5ZM34.5 39C33.9062 39 33.3262 38.8242 32.832 38.4946C32.3398 38.1646 31.9551 37.6963 31.7266 37.1479C31.5 36.6001 31.4414 35.9966 31.5566 35.4146C31.6719 34.833 31.959 34.2983 32.377 33.8789C32.7969 33.459 33.332 33.1733 33.9141 33.0576C34.4961 32.9419 35.0996 33.0015 35.6465 33.2285C36.1953 33.4556 36.6641 33.8398 36.9941 34.3335C37.3223 34.8267 37.5 35.4067 37.5 36C37.498 36.7954 37.1816 37.5581 36.6191 38.1206C36.0566 38.6831 35.2949 38.999 34.5 39ZM42 34.5L40.2852 34.5C39.9551 33.2153 39.209 32.0762 38.1602 31.2617C37.1133 30.4478 35.8262 30.0039 34.5 30L34.5 27L42 27L42 34.5Z" fill="#00E016" fill-opacity="1.000000" fill-rule="nonzero"/>
	</g>
</svg>
