<svg width="48.000000" height="48.000000" viewBox="0 0 48 48" fill="none" xmlns="http://www.w3.org/2000/svg" xmlns:xlink="http://www.w3.org/1999/xlink">
	<desc>
			Created with Pixso.
	</desc>
	<defs>
		<clipPath id="clip1_8441">
			<rect id="clarity:plane-line" width="48.000000" height="48.000000" fill="white" fill-opacity="0"/>
		</clipPath>
	</defs>
	<rect id="clarity:plane-line" width="48.000000" height="48.000000" fill="#FFFFFF" fill-opacity="0"/>
	<g clip-path="url(#clip1_8441)">
		<path id="Vector" d="M47.6934 10.8799C47.5918 10.231 47.2949 9.62842 46.8418 9.15234C46.3906 8.67603 45.8027 8.34863 45.1602 8.21338L37.334 6.49316C36.4941 6.3103 35.625 6.30957 34.7852 6.49121C33.9473 6.6731 33.1562 7.03296 32.4668 7.54663L9.33398 24.3999L2.85352 24.1333C2.33203 24.1145 1.82031 24.2605 1.38672 24.5505C0.953125 24.8403 0.621094 25.2593 0.441406 25.7478C0.259766 26.2363 0.236328 26.7698 0.375 27.2722C0.513672 27.7747 0.806641 28.2205 1.21484 28.5466L7.88086 33.7866C8.67969 34.76 9.21484 34.5732 22.4531 27.3599L23.6934 39.9199C23.7148 40.2625 23.832 40.5923 24.0332 40.8708C24.2324 41.1494 24.5078 41.3652 24.8281 41.4932C25.0566 41.5837 25.3008 41.6292 25.5469 41.6267C26.043 41.6113 26.5176 41.4172 26.8809 41.0798L30.0664 38.1733C30.3848 37.8794 30.5996 37.4915 30.6797 37.0667L33.5996 21.2C38.3613 18.5332 42.8672 16.0266 46.0801 14.2C46.6562 13.8765 47.1172 13.3855 47.4062 12.7922C47.6953 12.199 47.7949 11.5317 47.6934 10.8799ZM44.7598 11.8799C41.4277 13.7732 36.7598 16.4265 31.748 19.1733L31.2012 19.48L28.0938 36.3733L26.1348 38.1599L24.668 23.0933L22.8945 24C13.334 29.3333 10.1465 30.8799 9.05469 31.3599L3.32031 26.8132L10.0938 27.1067L34.0938 9.69336C34.4707 9.41113 34.9043 9.21191 35.3633 9.10864C35.8223 9.00513 36.2988 9 36.7598 9.09326L44.5605 10.7732C44.6816 10.7952 44.791 10.8547 44.875 10.9434C44.959 11.0322 45.0117 11.1453 45.0273 11.2666C45.0547 11.384 45.043 11.5068 44.9961 11.6174C44.9473 11.728 44.8652 11.8201 44.7598 11.8799Z" fill="#8500B4" fill-opacity="1.000000" fill-rule="nonzero"/>
		<path id="Vector" d="M9.33398 16.7202L14.0801 18.0535L16.2676 16.4668L10.9336 14.9202L13.334 13.4534L20.627 13.24L23.6934 11.0134L13.334 11.3335C13.0078 11.3157 12.6816 11.3945 12.4004 11.5601L8.89258 13.6001C8.60352 13.7717 8.37109 14.0256 8.22461 14.3293C8.07812 14.6331 8.02539 14.9731 8.07422 15.3069C8.12109 15.6404 8.26562 15.9526 8.49023 16.2041C8.71289 16.4558 9.00781 16.6353 9.33398 16.7202Z" fill="#8500B4" fill-opacity="1.000000" fill-rule="nonzero"/>
	</g>
</svg>
