<svg width="49.000000" height="49.000000" viewBox="0 0 49 49" fill="none" xmlns="http://www.w3.org/2000/svg" xmlns:xlink="http://www.w3.org/1999/xlink">
	<desc>
			Created with Pixso.
	</desc>
	<defs>
		<clipPath id="clip1_8448">
			<rect id="fluent:building-shop-20-regular" width="49.000000" height="49.000000" fill="white" fill-opacity="0"/>
		</clipPath>
	</defs>
	<rect id="fluent:building-shop-20-regular" width="49.000000" height="49.000000" fill="#FFFFFF" fill-opacity="0"/>
	<g clip-path="url(#clip1_8448)">
		<path id="Vector" d="M26.9512 28.1748L26.9512 35.5249C26.9512 35.8496 27.0801 36.1611 27.3086 36.3911C27.5391 36.6206 27.8496 36.75 28.1758 36.75L35.5254 36.75C35.8496 36.75 36.1621 36.6206 36.3906 36.3911C36.6211 36.1611 36.75 35.8496 36.75 35.5249L36.75 28.1748C36.75 27.8501 36.6211 27.5386 36.3906 27.3086C36.1621 27.0791 35.8496 26.9497 35.5254 26.9497L28.1758 26.9497C27.8496 26.9497 27.5391 27.0791 27.3086 27.3086C27.0801 27.5386 26.9512 27.8501 26.9512 28.1748ZM29.4004 34.2998L29.4004 29.3999L34.3008 29.3999L34.3008 34.2998L29.4004 34.2998ZM12.25 4.8999C12.0703 4.8999 11.8926 4.93945 11.7305 5.01562C11.5684 5.09204 11.4238 5.20288 11.3105 5.34082L5.18555 12.6909C5.00195 12.9109 4.90039 13.1885 4.90039 13.4749L4.90039 17.1499C4.90039 19.3254 5.8457 21.2832 7.34961 22.6279L7.34961 42.875C7.34961 43.1997 7.47852 43.5112 7.70898 43.7412C7.93945 43.9707 8.25 44.1001 8.57617 44.1001L40.4258 44.1001C40.75 44.1001 41.0625 43.9707 41.291 43.7412C41.5215 43.5112 41.6504 43.1997 41.6504 42.875L41.6504 22.6279C43.1543 21.2808 44.0996 19.3254 44.0996 17.1499L44.0996 13.4309C44.0996 13.2102 44.0996 13.0339 43.8164 12.6909L37.6914 5.34082C37.5762 5.20288 37.4316 5.09204 37.2695 5.01562C37.1074 4.93945 36.9297 4.8999 36.75 4.8999L12.25 4.8999ZM12.25 22.0498C10.9512 22.0498 9.70508 21.5337 8.78516 20.6147C7.86719 19.6958 7.34961 18.4495 7.34961 17.1499L7.34961 14.7L17.1504 14.7L17.1504 17.1499C17.1504 18.4495 16.6348 19.6958 15.7148 20.6147C14.7969 21.5337 13.5508 22.0498 12.25 22.0498ZM24.5 22.0498C23.2012 22.0498 21.9551 21.5337 21.0352 20.6147C20.1172 19.6958 19.5996 18.4495 19.5996 17.1499L19.5996 14.7L29.4004 14.7L29.4004 17.1499C29.4004 18.4495 28.8848 19.6958 27.9648 20.6147C27.0469 21.5337 25.8008 22.0498 24.5 22.0498ZM36.75 22.0498C35.4512 22.0498 34.2051 21.5337 33.2852 20.6147C32.3672 19.6958 31.8496 18.4495 31.8496 17.1499L31.8496 14.7L41.6504 14.7L41.6504 17.1499C41.6504 18.4495 41.1348 19.6958 40.2148 20.6147C39.2969 21.5337 38.0508 22.0498 36.75 22.0498ZM12.25 41.6499L9.80078 41.6499L9.80078 24.0835C11.3438 24.6309 13.0273 24.646 14.582 24.1265C16.1348 23.6069 17.4707 22.583 18.375 21.2168C19.0449 22.2275 19.957 23.0562 21.0254 23.6289C22.0938 24.2017 23.2871 24.501 24.5 24.5C25.7129 24.501 26.9082 24.2012 27.9766 23.6279C29.0449 23.0547 29.9551 22.2256 30.625 21.2144C31.5293 22.5806 32.8652 23.6045 34.4199 24.124C35.9727 24.6436 37.6562 24.6284 39.2012 24.0811L39.2012 41.6499L24.5 41.6499L24.5 28.1748C24.5 27.8501 24.3711 27.5386 24.1406 27.3086C23.9121 27.0791 23.5996 26.9497 23.2754 26.9497L13.4746 26.9497C13.1504 26.9497 12.8398 27.0791 12.6094 27.3086C12.3789 27.5386 12.25 27.8501 12.25 28.1748L12.25 41.6499ZM17.4941 12.25L8.74219 12.25L12.8242 7.34985L19.125 7.34985L17.4941 12.25ZM28.9258 12.25L20.0762 12.25L21.707 7.34985L27.293 7.34985L28.9258 12.25ZM31.5078 12.25L29.875 7.34985L36.1777 7.34985L40.2617 12.25L31.5078 12.25ZM14.7012 41.6499L14.7012 29.3999L22.0508 29.3999L22.0508 41.6499L14.7012 41.6499Z" fill="#31CEFF" fill-opacity="1.000000" fill-rule="nonzero"/>
	</g>
</svg>
