<svg width="16.501953" height="16.501953" viewBox="0 0 16.502 16.502" fill="none" xmlns="http://www.w3.org/2000/svg" xmlns:xlink="http://www.w3.org/1999/xlink">
	<desc>
			Created with Pixso.
	</desc>
	<defs/>
	<path id="Vector" d="M0.201172 1.17529C0.137695 1.11133 0.0869141 1.03516 0.0527344 0.95166C0.0175781 0.868164 0 0.778809 0 0.688477C0 0.598145 0.0175781 0.508301 0.0527344 0.424805C0.0869141 0.341309 0.137695 0.265625 0.201172 0.20166C0.265625 0.137695 0.341797 0.0869141 0.424805 0.0522461C0.508789 0.0175781 0.597656 0 0.688477 0C0.77832 0 0.868164 0.0175781 0.952148 0.0522461C1.03516 0.0869141 1.11133 0.137695 1.1748 0.20166L8.25098 7.27881L15.3262 0.20166C15.3906 0.137695 15.4668 0.0869141 15.5498 0.0522461C15.6338 0.0175781 15.7227 0 15.8135 0C15.9033 0 15.9932 0.0175781 16.0771 0.0522461C16.1602 0.0869141 16.2363 0.137695 16.2998 0.20166C16.3643 0.265625 16.415 0.341309 16.4492 0.424805C16.4844 0.508301 16.502 0.598145 16.502 0.688477C16.502 0.778809 16.4844 0.868164 16.4492 0.95166C16.415 1.03516 16.3643 1.11133 16.2998 1.17529L9.22266 8.25098L16.2998 15.3267C16.3643 15.3906 16.415 15.4663 16.4492 15.5498C16.4844 15.6333 16.502 15.7231 16.502 15.8135C16.502 15.9038 16.4844 15.9932 16.4492 16.0767C16.415 16.1602 16.3643 16.2363 16.2998 16.3003C16.2363 16.3643 16.1602 16.4146 16.0771 16.4492C15.9932 16.4839 15.9033 16.502 15.8135 16.502C15.7227 16.502 15.6338 16.4839 15.5498 16.4492C15.4668 16.4146 15.3906 16.3643 15.3262 16.3003L8.25098 9.22314L1.1748 16.3003C1.11133 16.3643 1.03516 16.4146 0.952148 16.4492C0.868164 16.4839 0.77832 16.502 0.688477 16.502C0.597656 16.502 0.508789 16.4839 0.424805 16.4492C0.341797 16.4146 0.265625 16.3643 0.201172 16.3003C0.137695 16.2363 0.0869141 16.1602 0.0527344 16.0767C0.0175781 15.9932 0 15.9038 0 15.8135C0 15.7231 0.0175781 15.6333 0.0527344 15.5498C0.0869141 15.4663 0.137695 15.3906 0.201172 15.3267L7.27832 8.25098L0.201172 1.17529Z" fill="#000000" fill-opacity="1.000000" fill-rule="nonzero"/>
</svg>
