<svg width="24.000000" height="24.000000" viewBox="0 0 24 24" fill="none"
	xmlns="http://www.w3.org/2000/svg" xmlns:xlink="http://www.w3.org/1999/xlink">
	<desc>
		Created with Pixso.
	</desc>
	<defs>
		
		<clipPath id="clip1_9739">
			<rect id="uiw:pay" width="24.000000" height="24.000000" fill="white" fill-opacity="0" />
		</clipPath>
	</defs>
	<rect id="uiw:pay" width="24.000000" height="24.000000" fill="#FFFFFF" fill-opacity="0" />
	<g clip-path="url(#clip1_9739)">
		<path id="Vector"
			d="M14.0039 10.2444C13.9092 10.2439 13.8174 10.2808 13.75 10.3474C13.6816 10.4138 13.6426 10.5046 13.6416 10.5996L13.6416 13.2542C13.6426 13.3494 13.6816 13.4402 13.75 13.5068C13.8184 13.5732 13.9102 13.6101 14.0049 13.6091L22.001 13.6091C22.0957 13.6101 22.1875 13.5732 22.2559 13.5068C22.3242 13.4402 22.3633 13.3494 22.3643 13.2542L22.3643 10.5996C22.3633 10.5044 22.3242 10.4136 22.2559 10.3469C22.1875 10.2803 22.0957 10.2434 22.001 10.2444L14.0049 10.2444L14.0039 10.2444ZM18.9072 1.80127C20.0137 1.854 20.8096 2.07251 21.3135 2.53564C21.8115 2.99414 22.0664 3.65771 22.1172 4.53613L22.1172 7.05249C22.1143 7.26685 22.0273 7.47119 21.874 7.62109C21.7207 7.771 21.5146 7.854 21.2998 7.85156C21.1934 7.85303 21.0879 7.83325 20.9902 7.7937C20.8916 7.75439 20.8008 7.6958 20.7256 7.62158C20.6494 7.54736 20.5889 7.45898 20.5469 7.36133C20.5049 7.26367 20.4824 7.15869 20.4814 7.05249L20.4824 4.58154C20.4561 4.12573 20.3477 3.84253 20.1914 3.69849C20.04 3.55933 19.5791 3.43457 18.8672 3.39844L3.17676 3.39844C2.53223 3.42236 2.11328 3.54492 1.91016 3.71875C1.75488 3.85205 1.63672 4.21924 1.63574 4.854L1.63184 18.978C1.69238 19.5947 1.82715 20.0063 2.00195 20.2117C2.13379 20.3677 2.54297 20.5237 3.14551 20.6003L18.8848 20.6003C19.6211 20.6147 20.0557 20.5044 20.2021 20.3569C20.3643 20.1924 20.4814 19.7605 20.4814 19.0537L20.4814 16.5996C20.4814 16.1592 20.8477 15.8005 21.2998 15.8005C21.751 15.8005 22.1172 16.1592 22.1172 16.5996L22.1172 19.0537C22.1172 20.1335 21.8965 20.9412 21.3789 21.4656C20.8467 22.0056 19.999 22.2217 18.8672 22.1978L3.04785 22.1941C1.97168 22.0693 1.2002 21.7739 0.740234 21.2305C0.324219 20.7385 0.0927734 20.0364 0 19.0549L0 4.85278C0.00195312 3.80176 0.254883 3.01074 0.833008 2.51636C1.36328 2.06055 2.12891 1.83838 3.14551 1.80005L18.9072 1.80005L18.9072 1.80127ZM22.001 8.646C23.1045 8.646 24 9.52075 24 10.5996L24 13.2542C24 14.3328 23.1045 15.2078 22.001 15.2078L14.0049 15.2078C12.9014 15.2078 12.0059 14.3315 12.0059 13.2542L12.0059 10.5996C12.0059 9.52075 12.9014 8.646 14.0049 8.646L22.001 8.646ZM16.0049 10.9741C15.4521 10.9741 15.0049 11.406 15.0049 11.9377C15.0049 12.4705 15.4521 12.9014 16.0049 12.9014C16.5566 12.9014 17.0039 12.4692 17.0039 11.9377C17.0039 11.4048 16.5566 10.9729 16.0049 10.9729L16.0049 10.9741Z"
			fill="#FFFFFF" fill-opacity="1.000000" fill-rule="nonzero" />
	</g>
</svg>