<svg width="24.000000" height="24.000000" viewBox="0 0 24 24" fill="none" xmlns="http://www.w3.org/2000/svg" xmlns:xlink="http://www.w3.org/1999/xlink">
	<desc>
			Created with Pixso.
	</desc>
	<defs>
		<clipPath id="clip1_8493">
			<rect id="Frame" width="24.000000" height="24.000000" fill="white" fill-opacity="0"/>
		</clipPath>
	</defs>
	<rect id="Frame" width="24.000000" height="24.000000" fill="#FFFFFF" fill-opacity="0"/>
	<g clip-path="url(#clip1_8493)">
		<path id="Vector" d="M9.36523 10.6821C10.3047 12.3306 11.6699 13.6958 13.3184 14.6338L14.2012 13.396C14.3438 13.1968 14.5547 13.0566 14.793 13.0024C15.0312 12.9478 15.2812 12.9824 15.4961 13.1001C16.9102 13.873 18.4727 14.3379 20.0781 14.4639C20.3301 14.4839 20.5645 14.5977 20.7344 14.7822C20.9043 14.9673 21 15.2095 21 15.4609L21 19.9229C21 20.1704 20.9082 20.4092 20.7422 20.5933C20.5762 20.7769 20.3477 20.8926 20.1016 20.918C19.5723 20.9731 19.0371 21 18.5 21C9.93945 21 3 14.0601 3 5.5C3 4.96191 3.02734 4.42822 3.08203 3.89795C3.10742 3.65186 3.22266 3.42334 3.40625 3.25781C3.58984 3.0918 3.83008 3 4.07617 3L8.53906 3C8.79102 3 9.0332 3.09473 9.2168 3.26562C9.40234 3.43604 9.51562 3.67041 9.53516 3.9209C9.66211 5.52783 10.127 7.08984 10.9004 8.50391C11.0176 8.71875 11.0527 8.96875 10.998 9.20703C10.9434 9.4458 10.8027 9.65576 10.6035 9.79785L9.36523 10.6821ZM6.84375 10.0249L8.74414 8.66797C8.20508 7.50391 7.83594 6.26904 7.64648 5L5.00977 5C5.00391 5.16602 5.00195 5.33301 5.00195 5.5C5 12.9561 11.0449 19 18.5 19C18.668 19 18.834 18.9971 19 18.9902L19 16.353C17.7305 16.1646 16.4961 15.7954 15.332 15.2559L13.9746 17.1558C13.4277 16.9438 12.8984 16.6929 12.3867 16.4058L12.3281 16.373C10.3672 15.2568 8.74414 13.6323 7.62695 11.6709L7.59375 11.6128C7.30664 11.1021 7.05664 10.5713 6.84375 10.0249Z" fill="#FFFFFF" fill-opacity="1.000000" fill-rule="nonzero"/>
	</g>
</svg>
