<svg width="24.000000" height="24.000000" viewBox="0 0 24 24" fill="none" xmlns="http://www.w3.org/2000/svg" xmlns:xlink="http://www.w3.org/1999/xlink">
	<desc>
			Created with Pixso.
	</desc>
	<defs>
		<clipPath id="clip1_8497">
			<rect id="Frame" width="24.000000" height="24.000000" fill="white" fill-opacity="0"/>
		</clipPath>
	</defs>
	<rect id="Frame" width="24.000000" height="24.000000" fill="#FFFFFF" fill-opacity="0"/>
	<g clip-path="url(#clip1_8497)">
		<path id="Vector" d="M12 21C7.0293 21 3 16.9707 3 12C3 7.0293 7.0293 3 12 3C16.9707 3 21 7.0293 21 12C21 16.9707 16.9707 21 12 21ZM9.93945 18.9004C9.05078 17.0171 8.53711 14.979 8.42383 12.8999L4.85547 12.8999C5.03125 14.2852 5.60547 15.5894 6.50781 16.6543C7.41016 17.7197 8.60156 18.5 9.93945 18.9004ZM10.2266 12.8999C10.3633 15.0952 10.9902 17.1572 12 18.9766C13.0371 17.1089 13.6426 15.0327 13.7734 12.8999L10.2266 12.8999ZM19.1445 12.8999L15.5762 12.8999C15.4629 14.979 14.9492 17.0171 14.0605 18.9004C15.3984 18.5 16.5898 17.7197 17.4922 16.6543C18.3945 15.5894 18.9688 14.2852 19.1445 12.8999ZM4.85547 11.1001L8.42383 11.1001C8.53711 9.021 9.05078 6.98291 9.93945 5.09961C8.60156 5.5 7.41016 6.28027 6.50781 7.3457C5.60547 8.41064 5.03125 9.71484 4.85547 11.1001ZM10.2285 11.1001L13.7715 11.1001C13.6426 8.96777 13.0371 6.89111 12 5.02344C10.9629 6.89111 10.3574 8.96729 10.2266 11.1001L10.2285 11.1001ZM14.0605 5.09961C14.9492 6.98291 15.4629 9.021 15.5762 11.1001L19.1445 11.1001C18.9688 9.71484 18.3945 8.41064 17.4922 7.3457C16.5898 6.28027 15.3984 5.5 14.0605 5.09961Z" fill="#FFFFFF" fill-opacity="1.000000" fill-rule="nonzero"/>
	</g>
</svg>
