<svg width="24.000000" height="24.000000" viewBox="0 0 24 24" fill="none" xmlns="http://www.w3.org/2000/svg" xmlns:xlink="http://www.w3.org/1999/xlink">
	<desc>
			Created with Pixso.
	</desc>
	<defs>
		<clipPath id="clip1_8500">
			<rect id="Frame" width="24.000000" height="24.000000" fill="white" fill-opacity="0"/>
		</clipPath>
	</defs>
	<rect id="Frame" width="24.000000" height="24.000000" fill="#FFFFFF" fill-opacity="0"/>
	<g clip-path="url(#clip1_8500)">
		<path id="Vector" d="M13 19.938C15.0176 19.6812 16.8613 18.666 18.1562 17.0986C19.4531 15.5312 20.1035 13.5293 19.9746 11.5C19.8477 9.47021 18.9531 7.56543 17.4707 6.17236C15.9902 4.7793 14.0332 4.00244 12 4C9.96484 3.99854 8.00391 4.77344 6.51953 6.1665C5.03516 7.56006 4.13672 9.4668 4.00977 11.499C3.88281 13.5312 4.53516 15.5352 5.83398 17.103C7.13281 18.6714 8.98047 19.6851 11 19.938L11 14L9 14L9 12L11 12L11 10.3462C11 9.00879 11.1406 8.52393 11.4004 8.03516C11.6562 7.55127 12.0527 7.15576 12.5352 6.8999C12.918 6.69482 13.3926 6.57178 14.2227 6.51904C14.5527 6.49805 14.9785 6.52393 15.502 6.59912L15.502 8.49902L15 8.49902C14.082 8.49902 13.7031 8.54199 13.4785 8.66309C13.3438 8.73242 13.2324 8.84229 13.1641 8.97705C13.0449 9.20312 13 9.42676 13 10.3452L13 12L15.5 12L15 14L13 14L13 19.938ZM12 22C6.47656 22 2 17.5229 2 12C2 6.47705 6.47656 2 12 2C17.5234 2 22 6.47705 22 12C22 17.5229 17.5234 22 12 22Z" fill="#FFFFFF" fill-opacity="1.000000" fill-rule="nonzero"/>
	</g>
</svg>
