<svg width="24.000000" height="24.000000" viewBox="0 0 24 24" fill="none" xmlns="http://www.w3.org/2000/svg" xmlns:xlink="http://www.w3.org/1999/xlink">
	<desc>
			Created with Pixso.
	</desc>
	<defs>
		<clipPath id="clip1_8503">
			<rect id="Frame" width="24.000000" height="24.000000" fill="white" fill-opacity="0"/>
		</clipPath>
	</defs>
	<rect id="Frame" width="24.000000" height="24.000000" fill="#FFFFFF" fill-opacity="0"/>
	<g clip-path="url(#clip1_8503)">
		<path id="Vector" d="M12 9C11.2051 9 10.4414 9.31592 9.87891 9.87891C9.31641 10.4414 9 11.2046 9 12C9 12.7954 9.31641 13.5586 9.87891 14.1211C10.4414 14.6841 11.2051 15 12 15C12.7949 15 13.5586 14.6841 14.1211 14.1211C14.6836 13.5586 15 12.7954 15 12C15 11.2046 14.6836 10.4414 14.1211 9.87891C13.5586 9.31592 12.7949 9 12 9ZM12 7C13.3262 7 14.5977 7.52686 15.5352 8.46436C16.4727 9.40234 17 10.6738 17 12C17 13.3262 16.4727 14.5977 15.5352 15.5356C14.5977 16.4731 13.3262 17 12 17C10.6738 17 9.40234 16.4731 8.46484 15.5356C7.52734 14.5977 7 13.3262 7 12C7 10.6738 7.52734 9.40234 8.46484 8.46436C9.40234 7.52686 10.6738 7 12 7ZM18.5 6.75C18.5 7.08154 18.3691 7.39941 18.1348 7.63379C17.9004 7.86816 17.582 8 17.25 8C16.918 8 16.5996 7.86816 16.3652 7.63379C16.1309 7.39941 16 7.08154 16 6.75C16 6.41846 16.1309 6.10059 16.3652 5.86621C16.5996 5.63184 16.918 5.5 17.25 5.5C17.582 5.5 17.9004 5.63184 18.1348 5.86621C18.3691 6.10059 18.5 6.41846 18.5 6.75ZM12 4C9.52539 4 9.12109 4.00684 7.9707 4.05811C7.1875 4.09521 6.66016 4.2002 6.17383 4.39014C5.73828 4.55811 5.42578 4.75879 5.09375 5.09277C4.7793 5.39551 4.53906 5.76465 4.38867 6.17285C4.19922 6.66309 4.09375 7.18799 4.05859 7.97119C4.00586 9.0752 4 9.46094 4 12C4 14.4741 4.00781 14.8779 4.05859 16.0288C4.0957 16.812 4.19922 17.3389 4.38867 17.8262C4.55859 18.2612 4.75977 18.5742 5.0918 18.9058C5.42773 19.2422 5.74023 19.4429 6.17188 19.6089C6.66406 19.7998 7.19141 19.9058 7.9707 19.9419C9.07422 19.9941 9.46094 20 12 20C14.4746 20 14.8789 19.9932 16.0293 19.9419C16.8105 19.9048 17.3379 19.7998 17.8262 19.6108C18.2598 19.4419 18.5742 19.2412 18.9062 18.9092C19.2422 18.5718 19.4434 18.2588 19.6094 17.8291C19.8008 17.3359 19.9062 16.8091 19.9414 16.0288C19.9941 14.9248 20 14.5391 20 12C20 9.52588 19.9922 9.12207 19.9414 7.97119C19.9043 7.18896 19.8008 6.66113 19.6094 6.17285C19.459 5.76514 19.2188 5.396 18.9062 5.09277C18.6055 4.77979 18.2363 4.53906 17.8262 4.38916C17.3379 4.19922 16.8105 4.09424 16.0293 4.05811C14.9258 4.00586 14.5391 4 12 4ZM12 2C14.7168 2 15.0566 2.00977 16.1211 2.06006C17.1875 2.10986 17.9121 2.27686 18.5508 2.5249C19.2109 2.77881 19.7656 3.12305 20.3223 3.67822C20.8301 4.17773 21.2246 4.78271 21.4746 5.4502C21.7227 6.08691 21.8906 6.81299 21.9395 7.87793C21.9863 8.94385 22 9.2832 22 12C22 14.7168 21.9902 15.0562 21.9395 16.1221C21.8906 17.187 21.7227 17.9121 21.4746 18.5498C21.2246 19.2178 20.832 19.8228 20.3223 20.3218C19.8223 20.8301 19.2168 21.2236 18.5508 21.4751C17.9121 21.7222 17.1875 21.8901 16.1211 21.9399C15.0566 21.9868 14.7168 22 12 22C9.2832 22 8.94336 21.9902 7.87891 21.9399C6.8125 21.8901 6.08789 21.7222 5.44922 21.4751C4.7832 21.2246 4.17773 20.8311 3.67773 20.3218C3.16992 19.8223 2.77539 19.2173 2.52539 18.5498C2.27734 17.9131 2.10938 17.187 2.06055 16.1221C2.01367 15.0562 2 14.7168 2 12C2 9.2832 2.00977 8.94385 2.06055 7.87793C2.10938 6.81201 2.27734 6.08789 2.52539 5.4502C2.77539 4.78223 3.16797 4.17725 3.67773 3.67822C4.17773 3.16943 4.7832 2.77588 5.44922 2.5249C6.08789 2.27686 6.8125 2.10986 7.87891 2.06006C8.94336 2.01318 9.2832 2 12 2Z" fill="#FFFFFF" fill-opacity="1.000000" fill-rule="nonzero"/>
	</g>
</svg>
