<svg width="24.000000" height="24.000000" viewBox="0 0 24 24" fill="none" xmlns="http://www.w3.org/2000/svg" xmlns:xlink="http://www.w3.org/1999/xlink">
	<desc>
			Created with Pixso.
	</desc>
	<defs>
		<clipPath id="clip1_8511">
			<rect id="Frame" width="24.000000" height="24.000000" fill="white" fill-opacity="0"/>
		</clipPath>
	</defs>
	<rect id="Frame" width="24.000000" height="24.000000" fill="#FFFFFF" fill-opacity="0"/>
	<g clip-path="url(#clip1_8511)">
		<path id="Vector" d="M12 20.8999L16.9492 15.9497C17.9297 14.9707 18.5957 13.7236 18.8652 12.3657C19.1348 11.0078 18.9961 9.60059 18.4668 8.32129C17.9375 7.04248 17.041 5.94922 15.8887 5.18018C14.7383 4.41113 13.3848 4.00049 12 4.00049C10.6152 4.00049 9.26172 4.41113 8.11133 5.18018C6.95898 5.94922 6.0625 7.04248 5.5332 8.32129C5.00391 9.60059 4.86523 11.0078 5.13477 12.3657C5.4043 13.7236 6.07031 14.9707 7.05078 15.9497L12 20.8999ZM12 23.728L5.63672 17.3638C4.37695 16.1055 3.51953 14.5015 3.17383 12.7559C2.82617 11.0098 3.00391 9.2002 3.68555 7.55566C4.36719 5.91113 5.51953 4.50586 7 3.5166C8.48047 2.52783 10.2207 2 12 2C13.7793 2 15.5195 2.52783 17 3.5166C18.4805 4.50586 19.6328 5.91113 20.3145 7.55566C20.9961 9.2002 21.1738 11.0098 20.8262 12.7559C20.4805 14.5015 19.623 16.1055 18.3633 17.3638L12 23.728ZM12 13C12.5312 13 13.0391 12.7891 13.4141 12.4141C13.7891 12.0391 14 11.5303 14 11C14 10.4697 13.7891 9.96094 13.4141 9.58594C13.0391 9.21045 12.5312 9 12 9C11.4688 9 10.9609 9.21045 10.5859 9.58594C10.2109 9.96094 10 10.4697 10 11C10 11.5303 10.2109 12.0391 10.5859 12.4141C10.9609 12.7891 11.4688 13 12 13ZM12 15C10.9395 15 9.92188 14.5786 9.17188 13.8281C8.42188 13.0781 8 12.0605 8 11C8 9.93896 8.42188 8.92188 9.17188 8.17139C9.92188 7.42139 10.9395 7 12 7C13.0605 7 14.0781 7.42139 14.8281 8.17139C15.5781 8.92188 16 9.93896 16 11C16 12.0605 15.5781 13.0781 14.8281 13.8281C14.0781 14.5786 13.0605 15 12 15Z" fill="#FFFFFF" fill-opacity="1.000000" fill-rule="nonzero"/>
	</g>
</svg>
