<svg width="59.000000" height="59.000488" viewBox="0 0 59 59.0005" fill="none" xmlns="http://www.w3.org/2000/svg" xmlns:xlink="http://www.w3.org/1999/xlink">
	<desc>
			Created with Pixso.
	</desc>
	<defs/>
	<path id="04012019-07 1 (Traced)" d="M27.7207 0.00878906C23.959 0.266113 20.5605 1.11865 17.1953 2.6499C16.3711 3.0249 16.2188 3.10156 15.3535 3.57617C11.875 5.48291 8.85742 8.0249 6.39062 11.126C2.57031 15.9321 0.375 21.7207 0.0234375 27.9224C-0.0214844 28.7202 0.00195312 31.0317 0.0625 31.6562C0.269531 33.8105 0.433594 34.855 0.804688 36.4019C1.45703 39.1177 2.50391 41.7524 3.88281 44.1562C4.52344 45.2705 5.0918 46.1445 5.16602 46.1294C5.23828 46.1152 9.08398 42.3071 9.08398 42.251C9.08398 42.2222 8.93359 41.939 8.74805 41.6221C8.14844 40.5986 7.625 39.5273 7.15625 38.3721C6.72852 37.3135 6.23242 35.6831 5.99219 34.5376C4.73242 28.5298 5.76172 22.3208 8.87695 17.1338C11.2344 13.2104 14.6602 10.0347 18.7422 7.98877C20.1016 7.30713 21.3359 6.8208 22.7656 6.40332C24.1562 5.99707 25.4316 5.74658 27.0215 5.56689C27.7559 5.48389 28.0859 5.47119 29.5 5.47119C30.9141 5.47119 31.2422 5.48389 31.9766 5.56689C33.5664 5.74658 34.8418 5.99707 36.2344 6.40332C37.6621 6.8208 38.8965 7.30713 40.2578 7.98877C43.582 9.65479 46.4688 12.0635 48.7129 15.0454C52.0332 19.4541 53.748 24.9492 53.5137 30.4272C53.4434 32.0742 53.1855 33.9282 52.8516 35.2153C52.2129 37.6689 51.4121 39.645 50.2598 41.6094C50.0703 41.9336 49.9141 42.2222 49.9141 42.251C49.9141 42.3071 53.7598 46.1152 53.832 46.1294C53.9688 46.1567 55.2695 43.9692 55.9902 42.5039C57.7617 38.8945 58.7441 35.1113 58.9785 30.999C59.0215 30.2144 58.9961 27.9961 58.9355 27.3125C58.8008 25.8223 58.7305 25.2861 58.5039 24.0498C57.4258 18.1572 54.4453 12.5762 50.1328 8.37793C45.6699 4.0332 40.1191 1.26025 33.9668 0.302246C32.4746 0.0698242 31.6875 0.0141602 29.7539 0.00292969C28.7637 -0.00244141 27.8477 0 27.7207 0.00878906ZM24.9785 16.0518L20.4785 20.5542L20.4785 18.2227L20.4785 15.8916L20.2129 15.7485C19.4668 15.3462 18.791 14.9785 18.2812 14.6992C17.9707 14.5283 17.707 14.3887 17.6992 14.3887C17.6895 14.3887 17.4434 14.2554 17.1523 14.0923C16.8613 13.9292 16.5996 13.7959 16.5703 13.7969C16.541 13.7974 16.4219 13.9507 16.3066 14.1372C16.1895 14.3242 15.9805 14.6528 15.8398 14.8672C15.7012 15.082 15.4336 15.4961 15.25 15.7871C15.0645 16.0786 14.7969 16.498 14.6543 16.7192C14.5117 16.9409 14.3164 17.2456 14.2188 17.3975C14.123 17.5488 13.8535 17.9683 13.6211 18.3291C13.3887 18.6899 13.207 18.9927 13.2148 19.002C13.2246 19.0112 13.7148 18.7515 14.3027 18.4253C14.8926 18.0991 15.4688 17.7798 15.5859 17.7153C15.7031 17.6514 15.8945 17.5439 16.0156 17.4771C16.1348 17.4097 16.2441 17.355 16.2578 17.355C16.2734 17.355 16.2852 20.0386 16.2832 23.3188L16.2812 29.2832L16.1582 28.9863C16.0898 28.8232 15.8906 28.3179 15.7129 27.8638C15.1504 26.418 15.041 26.1484 15.0059 26.106C14.9844 26.0815 13.7305 27.3042 11.9004 29.1357C9.06055 31.9756 8.83008 32.2173 8.83008 32.3481C8.83008 32.5859 9.03906 33.8638 9.19336 34.5586C9.42969 35.6323 9.69727 36.5273 10.1074 37.6025C10.3145 38.1494 10.7363 39.0928 10.7734 39.0928C10.7871 39.0928 15.0078 34.8833 20.1504 29.7388L29.5 20.3848L38.8574 29.7476C44.0059 34.897 48.2266 39.1006 48.2383 39.0884C48.2773 39.0493 48.6055 38.3213 48.7793 37.8848C49.1992 36.8394 49.5391 35.748 49.7891 34.6436C49.9316 34.0122 50.168 32.5879 50.168 32.355C50.168 32.2144 49.6543 31.6934 39.8438 21.8784C34.166 16.1978 29.5117 11.5498 29.5 11.5498C29.4883 11.5498 27.4531 13.5757 24.9785 16.0518ZM27.6914 28.1177C27.3008 28.2197 26.834 28.4248 26.5586 28.6147C26.0586 28.96 25.5234 29.5898 25.3027 30.0913C25.1582 30.4204 25.0098 31.0352 25.0098 31.3042L25.0098 31.5503L26.7676 31.5503L28.5254 31.5503L28.5254 29.7915L28.5254 28.0332L28.2598 28.0356C28.1152 28.0366 27.8594 28.0737 27.6914 28.1177ZM30.4727 29.7915L30.4727 31.5503L32.2305 31.5503L33.9883 31.5503L33.9883 31.3042C33.9883 31.0352 33.8398 30.4204 33.6953 30.0913C33.4766 29.5898 32.9395 28.96 32.4395 28.6147C31.9844 28.3003 31.1934 28.0332 30.7207 28.0332L30.4727 28.0332L30.4727 29.7915ZM25.0098 34.813L25.0098 36.5928L26.7676 36.5928L28.5254 36.5928L28.5254 34.813L28.5254 33.0332L26.7676 33.0332L25.0098 33.0332L25.0098 34.813ZM30.4727 34.813L30.4727 36.5928L32.2305 36.5928L33.9883 36.5928L33.9883 34.813L33.9883 33.0332L32.2305 33.0332L30.4727 33.0332L30.4727 34.813ZM36.4258 38.0859C36.4141 38.1387 36.4004 38.2485 36.3926 38.3301L36.3828 38.478L35.1445 38.4995C34.4062 38.5122 33.8906 38.5376 33.8672 38.563C33.8438 38.5864 33.8184 38.7104 33.8105 38.8384L33.7988 39.0713L29.6895 39.0957C25.3496 39.1211 25.416 39.1182 24.5234 39.3237C23.5781 39.541 22.332 40.0957 21.4043 40.7144C20.082 41.5962 18.6719 43.0195 17.6934 44.4629C17.5156 44.7251 17.3809 44.9487 17.3906 44.9595C17.4023 44.9707 17.6758 44.8477 17.998 44.686C19.5586 43.9023 21.3613 43.3545 22.8672 43.2061C24.1934 43.0757 25.748 43.2363 26.3008 43.5605C27.0293 43.9873 27.4785 45.1768 27.5918 46.9814C27.6309 47.6133 27.6777 47.7529 27.8965 47.8818L28.0176 47.9536L28.0176 50.7324L28.0176 53.5112L27.6465 53.4829C22.7285 53.1021 18.0938 51.2388 14.252 48.0972C13.1875 47.2271 12.1211 46.1763 11.1582 45.0518L10.7637 44.5918L10.4238 44.9463C7 48.5054 7.00977 48.4966 7.00977 48.5635C7.00977 48.625 7.89648 49.5991 8.57617 50.2837C11.1504 52.875 13.9629 54.8354 17.3398 56.3887C22.3301 58.6851 28.2852 59.5156 33.8203 58.687C39.6426 57.8154 44.8867 55.3354 49.3008 51.3677C50.1895 50.5674 51.9902 48.6816 51.9902 48.5498C51.9902 48.5254 51.709 48.2129 51.3652 47.8555C50.6211 47.0811 49.0977 45.4937 48.5957 44.9668L48.2363 44.5908L47.8418 45.0518C44.5137 48.9429 40.1855 51.6323 35.3008 52.8452C34.4082 53.0664 33.3008 53.2705 32.4434 53.3716C32.2324 53.3965 32 53.4243 31.9238 53.4341L31.7871 53.4521L31.7871 50.6997L31.7871 47.9473L31.9238 47.8809C32.125 47.7842 32.2227 47.6279 32.2383 47.3799C32.3281 45.9561 32.4023 45.4507 32.6172 44.8218C32.8145 44.2383 33.1621 43.6919 33.4961 43.437C33.6172 43.3457 33.6602 43.3325 33.7285 43.3691C33.7754 43.394 33.8203 43.4575 33.8262 43.5103L33.8398 43.6055L35.0645 43.6167C35.8828 43.624 36.3086 43.6436 36.3457 43.6748C36.3809 43.7031 36.4023 43.8101 36.4023 43.9409C36.4023 44.062 36.4258 44.1836 36.4531 44.2114C36.5332 44.29 39.5938 44.2837 39.6602 44.2046C39.6934 44.1626 39.7051 43.3105 39.6973 41.0796L39.6855 38.0122L38.0664 38.001L36.4473 37.9897L36.4258 38.0859Z" fill="#FFFFFF" fill-opacity="1.000000" fill-rule="evenodd"/>
</svg>
