<svg width="24.000000" height="24.000000" viewBox="0 0 24 24" fill="none" xmlns="http://www.w3.org/2000/svg" xmlns:xlink="http://www.w3.org/1999/xlink">
	<desc>
			Created with Pixso.
	</desc>
	<defs>
		<clipPath id="clip1_8506">
			<rect id="Frame" width="24.000000" height="24.000000" fill="white" fill-opacity="0"/>
		</clipPath>
	</defs>
	<rect id="Frame" width="24.000000" height="24.000000" fill="#FFFFFF" fill-opacity="0"/>
	<g clip-path="url(#clip1_8506)">
		<path id="Vector" d="M12 20C14.1211 20 16.1562 19.1572 17.6562 17.6567C19.1562 16.1567 20 14.1216 20 12C20 9.87842 19.1562 7.84326 17.6562 6.34326C16.1562 4.84277 14.1211 4 12 4C9.87891 4 7.84375 4.84277 6.34375 6.34326C4.84375 7.84326 4 9.87842 4 12C4 14.1216 4.84375 16.1567 6.34375 17.6567C7.84375 19.1572 9.87891 20 12 20ZM12 22C6.47656 22 2 17.5229 2 12C2 6.47705 6.47656 2 12 2C17.5234 2 22 6.47705 22 12C22 17.5229 17.5234 22 12 22ZM8.89062 13.1699L6.39258 12.3911C5.85156 12.2261 5.84961 11.854 6.51367 11.5869L16.2461 7.82715C16.8105 7.59717 17.1309 7.88818 16.9473 8.61719L15.291 16.437C15.1758 16.9941 14.8398 17.127 14.375 16.8701L11.8242 14.9819L10.6348 16.1299C10.5137 16.248 10.4141 16.3491 10.2266 16.374C10.0391 16.3999 9.88477 16.3442 9.77148 16.0342L8.90234 13.1631L8.89062 13.1709L8.89062 13.1699Z" fill="#FFFFFF" fill-opacity="1.000000" fill-rule="nonzero"/>
	</g>
</svg>
